<svg xmlns="http://www.w3.org/2000/svg" xmlns:xlink="http://www.w3.org/1999/xlink" version="1.1" id="Layer_1" x="0px" y="0px" width="100px" height="100px" viewBox="0 0 100 100" enable-background="new 0 0 100 100" xml:space="preserve">
<rect x="-111.006" y="-179.078" width="62.786" height="1.621"/>
<g>
	<path d="M-30.2-192.762l-1.258,1.024l1.75,2.148l-20.147,16.413v-2.801h-59.474v8.984h4.127c1.279-2.273,3.715-3.812,6.505-3.812   c2.789,0,5.225,1.539,6.504,3.812h25.504c1.28-2.273,3.716-3.812,6.505-3.812c2.79,0,5.226,1.539,6.506,3.812h3.823v-4.092   l21.172-17.246l1.736,2.131l1.258-1.025L-30.2-192.762z"/>
	<path d="M-60.075-156.666c-3.7,0-6.71-3.012-6.71-6.711c0-3.701,3.01-6.711,6.71-6.711s6.711,3.01,6.711,6.711   C-53.364-159.678-56.375-156.666-60.075-156.666 M-60.075-168.588c-2.873,0-5.21,2.338-5.21,5.211s2.337,5.211,5.21,5.211   s5.211-2.338,5.211-5.211S-57.202-168.588-60.075-168.588"/>
	<path d="M-60.026-164.906c-0.822,0-1.49,0.668-1.49,1.49s0.668,1.49,1.49,1.49c0.821,0,1.49-0.668,1.49-1.49   S-59.205-164.906-60.026-164.906"/>
	<path d="M-98.748-156.666c-3.7,0-6.71-3.012-6.71-6.711c0-3.701,3.01-6.711,6.71-6.711s6.711,3.01,6.711,6.711   C-92.037-159.678-95.048-156.666-98.748-156.666 M-98.748-168.588c-2.873,0-5.21,2.338-5.21,5.211s2.337,5.211,5.21,5.211   s5.211-2.338,5.211-5.211S-95.875-168.588-98.748-168.588"/>
	<path d="M-98.699-164.906c-0.822,0-1.49,0.668-1.49,1.49s0.668,1.49,1.49,1.49c0.821,0,1.489-0.668,1.489-1.49   S-97.878-164.906-98.699-164.906"/>
</g>
<g>
	<path d="M564.75-169.563v-12.716c0-14.91-12.088-27-27-27h-25.544c-14.912,0-27,12.09-27,27v16.308h4.271   c1.199-2.133,3.482-3.554,6.098-3.554s4.898,1.421,6.098,3.554h2.816c1.199-2.133,3.482-3.554,6.098-3.554   c2.616,0,4.898,1.421,6.1,3.554h16.184v-37.054h16.172v37.054h23.84v-3.592H564.75z"/>
	<path d="M571.695-170.031c-0.822,0-1.49-0.67-1.49-1.49c0-0.822,0.668-1.49,1.49-1.49s1.49,0.668,1.49,1.49   C573.186-170.701,572.518-170.031,571.695-170.031"/>
	<path d="M534.369-165.972h13.172v-35.554h-13.172V-165.972z M544.715-179.926c-0.82,0-1.49-0.67-1.49-1.49   c0-0.824,0.67-1.49,1.49-1.49c0.822,0,1.49,0.666,1.49,1.49C546.205-180.596,545.537-179.926,544.715-179.926 M536.021-199.875   h9.867v9.869h-9.867V-199.875z"/>
</g>
<g>
	<path d="M265.748-156.682c-8.325,0-15.099-6.773-15.099-15.1c0-8.324,6.773-15.099,15.099-15.099s15.099,6.774,15.099,15.099   C280.847-163.455,274.073-156.682,265.748-156.682 M265.71-184.677c-7.111,0-12.896,5.786-12.896,12.896   c0,7.111,5.785,12.897,12.896,12.897c7.109,0,12.895-5.786,12.895-12.897C278.604-178.891,272.819-184.677,265.71-184.677"/>
	<path d="M265.856-175.222c-1.85,0-3.352,1.505-3.352,3.354c0,1.847,1.502,3.352,3.352,3.352s3.354-1.505,3.354-3.352   C269.21-173.717,267.706-175.222,265.856-175.222"/>
	<path d="M312.664-156.682c-8.325,0-15.099-6.773-15.099-15.1c0-8.324,6.773-15.099,15.099-15.099s15.099,6.774,15.099,15.099   C327.763-163.455,320.989-156.682,312.664-156.682 M312.702-184.677c-7.11,0-12.896,5.786-12.896,12.896   c0,7.111,5.785,12.897,12.896,12.897c7.111,0,12.896-5.786,12.896-12.897C325.599-178.891,319.813-184.677,312.702-184.677"/>
	<path d="M312.772-175.222c-1.849,0-3.354,1.505-3.354,3.354c0,1.847,1.505,3.352,3.354,3.352s3.354-1.505,3.354-3.352   C316.127-173.717,314.621-175.222,312.772-175.222"/>
	<path d="M317.062-192.196l1.809-28.206h-58.898l1.941,31.547c1.137-0.233,2.314-0.356,3.52-0.356   c9.639,0,17.479,7.843,17.479,17.48v0.04h11.959c0-0.013-0.001-0.026-0.001-0.04c0-9.638,7.841-17.48,17.479-17.48   c1.578,0,3.107,0.214,4.563,0.608l13.142,0.001v-3.594H317.062z M314.272-200.941h-11.108v-11.109h11.108V-200.941z"/>
</g>
<g>
	<rect x="527.359" y="-436.751" width="2.104" height="23.598"/>
	<path d="M545.114-413.153v-16.237c0-5.219-4.246-9.466-9.466-9.466h-6.706l-0.023-27.605l0.65-1.028l15.201-3.45l-0.409-1.779   l-15.496,3.516l-1.578-0.997l-0.998,1.582l-15.664,3.554l0.452,1.77l15.32-3.477l1.61,1.019l0.022,26.895h-6.638   c-5.219,0-9.467,4.247-9.467,9.466v16.344h0.016v17.956c0,4.971,4.029,9,9,9h9.896c-2.12-1.737-3.478-4.375-3.478-7.325v-19.737   H514.03v-16.237c0-4.059,3.304-7.363,7.362-7.363h14.256c4.06,0,7.362,3.304,7.362,7.363v16.237h-13.548v19.737   c0,3.812,2.91,6.954,6.625,7.325h0.102c4.97,0,9-4.029,9-9v-18.062H545.114z M533.413-400.146c-1.231,0-2.235-1.002-2.235-2.235   c0-1.232,1.004-2.235,2.235-2.235c1.233,0,2.235,1.003,2.235,2.235C535.648-401.148,534.646-400.146,533.413-400.146z"/>
	<circle cx="523.239" cy="-470.506" r="2.235"/>
	<path d="M531.049-470.358c1.201-0.271,1.959-1.469,1.688-2.671c-0.271-1.202-1.471-1.961-2.672-1.69   c-1.204,0.271-1.96,1.47-1.688,2.672C528.647-470.844,529.845-470.087,531.049-470.358z"/>
	<circle cx="525.171" cy="-463.637" r="2.234"/>
	<path d="M531.714-467.402c-1.203,0.271-1.96,1.469-1.688,2.672c0.271,1.202,1.468,1.96,2.672,1.688   c1.201-0.27,1.959-1.468,1.688-2.671C534.114-466.917,532.915-467.673,531.714-467.402z"/>
</g>
<g>
	<circle cx="403.311" cy="-470.506" r="2.235"/>
	<path d="M411.12-470.358c1.201-0.271,1.959-1.469,1.688-2.671c-0.271-1.202-1.471-1.961-2.672-1.69   c-1.204,0.271-1.96,1.47-1.688,2.672C408.719-470.844,409.916-470.087,411.12-470.358z"/>
	<circle cx="405.243" cy="-463.637" r="2.234"/>
	<path d="M411.785-467.402c-1.203,0.271-1.96,1.469-1.688,2.672c0.271,1.202,1.468,1.96,2.672,1.688   c1.201-0.27,1.959-1.468,1.688-2.671C414.186-466.917,412.986-467.673,411.785-467.402z"/>
</g>
<g>
	<path d="M50.633-293.844c-13.792,0-43.71-1.913-43.71-1.913c-0.021,0.247-0.038,3.497-0.038,3.75c0,4.556,3.694,8.249,8.25,8.249   h25.881l10.079-10.087C50.941-293.844,50.787-293.844,50.633-293.844"/>
	<path d="M94.352-296.257c0,0-23.21,2.274-40.954,2.402L43.31-283.757h42.831c4.557,0,8.249-3.694,8.249-8.25   C94.39-292.26,94.375-296.01,94.352-296.257"/>
	<path d="M38.289-281.027c-1.417-0.385-4.031,0.889-6.357,3.214c-2.721,2.72-4.01,5.842-2.877,6.974   c1.131,1.13,4.252-0.158,6.971-2.878c2.154-2.153,3.404-4.555,3.273-6.024l4.012-4.015h-2.293L38.289-281.027z"/>
	<path d="M60.315-300.777l1.944,1.942l1.146-1.147l-5.053-5.046l-1.146,1.147l1.96,1.958l-8.071,8.079   c0.756-0.001,1.523-0.004,2.303-0.01L60.315-300.777z"/>
</g>
<g>
	<path d="M181.507-291.276c-0.034,0.445-2.626,0.83-6.375,1.014l-8.446,8.453c1.422,0.023,2.789,0.036,4.074,0.036   c13.5,0,34.908-1.425,34.908-1.425c4.557,0,8.234-6.253,8.211-6.5C213.879-289.698,197.337-291.254,181.507-291.276"/>
	<path d="M170.161-290.147c-6.23,0-11.285-0.503-11.346-1.126c-14.487,0.024-32.363,2.076-32.363,2.076   c-0.023,0.247,3.654,5.999,8.211,5.999c0,0,16.523,1.043,29.754,1.345l8.317-8.323   C171.907-290.157,171.045-290.147,170.161-290.147"/>
	<path d="M180.382-295.518l1.818,0.779l6.541-6.541l-1.149-2.563l-2.739-1.325l-6.54,6.54l0.962,1.924l-1.108,1.108l-0.01-0.01   l-5.423,5.428c0.838-0.019,1.642-0.048,2.398-0.085L180.382-295.518z"/>
	<path d="M155.03-272.458l-1.818-0.778l-6.541,6.541l1.148,2.562l2.74,1.325l6.54-6.54l-0.962-1.924l1.107-1.108l0.011,0.011   l9.431-9.439c-0.742-0.012-1.501-0.027-2.269-0.045L155.03-272.458z"/>
</g>
<polygon points="416.057,-295.157 378.254,-295.157 382.94,-299.682 411.463,-299.682 "/>
<polygon points="369.246,-284.531 371.918,-276.81 443.787,-276.81 453.553,-284.531 "/>
<polygon points="376.844,-293.774 369.246,-286.053 438.963,-286.053 430.494,-293.774 "/>
<g>
	<path d="M499.857-73.831c0-2.209,1.791-4,4-4h24.334c2.209,0,4,1.791,4,4s-1.791,4-4,4h-24.334   C501.648-69.831,499.857-71.622,499.857-73.831"/>
	<line x1="510.4" y1="-46.972" x2="510.4" y2="-46.971"/>
	<path d="M507.348-36.947c-3.787,0-6.869-3.082-6.869-6.87c0-3.789,3.082-6.871,6.869-6.871c3.789,0,6.871,3.082,6.871,6.871   C514.219-40.029,511.137-36.947,507.348-36.947 M507.348-49.152c-2.941,0-5.334,2.393-5.334,5.335c0,2.941,2.393,5.334,5.334,5.334   s5.336-2.393,5.336-5.334C512.684-46.76,510.289-49.152,507.348-49.152"/>
	<path d="M507.398-45.384c-0.842,0-1.527,0.685-1.527,1.526c0,0.841,0.686,1.524,1.527,1.524c0.84,0,1.523-0.684,1.523-1.524   C508.922-44.699,508.238-45.384,507.398-45.384"/>
	<path d="M557.932-36.947c-3.789,0-6.871-3.082-6.871-6.87c0-3.789,3.082-6.871,6.871-6.871c3.787,0,6.869,3.082,6.869,6.871   C564.801-40.029,561.719-36.947,557.932-36.947 M557.932-49.152c-2.941,0-5.336,2.393-5.336,5.335c0,2.941,2.395,5.334,5.336,5.334   s5.334-2.393,5.334-5.334C563.266-46.76,560.873-49.152,557.932-49.152"/>
	<path d="M557.98-45.384c-0.842,0-1.525,0.685-1.525,1.526c0,0.841,0.684,1.524,1.525,1.524s1.525-0.684,1.525-1.524   C559.506-44.699,558.822-45.384,557.98-45.384"/>
</g>
<path d="M498.542-283.18l12.735-60.327l0,0l0.017,60.19L498.542-283.18z M508.624-318.897l-6.39,32.698l6.213,0.036L508.624-318.897  z"/>
<polyline points="510.548,-281.902 487.815,-281.902 490.315,-276.983 541.706,-276.983 550.843,-281.902 511.915,-281.902 "/>
<path d="M513.179-283.113v-67.497l42.592,67.489L513.179-283.113z M516.239-340.518v54.211h32.963L516.239-340.518z"/>
<g>
	<path d="M-68.998-294.257l0.375-0.376c-12.582,0.147-26.008,0.293-33.82,0.35l2.13,10.777h20.575l10.749-10.751H-68.998z"/>
	<path d="M-66.293-294.661l-11.15,11.154h25.252c8.871,0,14.215-11.252,14.193-11.499   C-37.998-295.005-51.236-294.836-66.293-294.661"/>
	<path d="M-82.91-280.334c-1.417-0.385-4.032,0.889-6.358,3.214c-2.72,2.72-4.009,5.842-2.877,6.973   c1.131,1.131,4.253-0.157,6.972-2.877c2.154-2.153,3.404-4.555,3.273-6.024l4.456-4.457h-2.294L-82.91-280.334z"/>
	<path d="M-65.918-295.037h-0.008l6.147-6.153l1.944,1.942l1.146-1.147l-5.052-5.046l-1.146,1.147l1.96,1.958l-7.696,7.702   c0.78-0.008,1.558-0.018,2.33-0.027L-65.918-295.037z"/>
</g>
<g>
	<path d="M382.353-156.571c-5.523,0-10.018-4.494-10.018-10.018c0-5.524,4.494-10.02,10.018-10.02   c5.524,0,10.019,4.495,10.019,10.02C392.371-161.065,387.877-156.571,382.353-156.571 M382.328-175.146   c-4.72,0-8.558,3.839-8.558,8.557c0,4.719,3.838,8.557,8.558,8.557c4.718,0,8.556-3.838,8.556-8.557   C390.884-171.307,387.046-175.146,382.328-175.146"/>
	<path d="M382.425-168.873c-1.227,0-2.225,0.999-2.225,2.226c0,1.226,0.998,2.224,2.225,2.224c1.229,0,2.227-0.998,2.227-2.224   C384.651-167.874,383.653-168.873,382.425-168.873"/>
	<path d="M439.77-156.571c-5.524,0-10.019-4.494-10.019-10.018c0-5.524,4.494-10.02,10.019-10.02c5.523,0,10.018,4.495,10.018,10.02   C449.787-161.065,445.293-156.571,439.77-156.571 M439.794-175.146c-4.717,0-8.557,3.839-8.557,8.557   c0,4.719,3.84,8.557,8.557,8.557c4.719,0,8.557-3.838,8.557-8.557C448.351-171.307,444.513-175.146,439.794-175.146"/>
	<path d="M439.841-168.873c-1.226,0-2.225,0.999-2.225,2.226c0,1.226,0.999,2.224,2.225,2.224c1.227,0,2.225-0.998,2.225-2.224   C442.065-167.874,441.067-168.873,439.841-168.873"/>
	<path d="M443.37-181.314l0.517-2.841h-65.366l1.288,6.238c0.755-0.155,1.536-0.237,2.336-0.237c6.396,0,11.597,5.203,11.597,11.598   v0.027h34.222v-0.027c0-6.395,5.201-11.598,11.597-11.598c1.047,0,2.062,0.142,3.028,0.404h8.719l0.683-3.564H443.37z"/>
	<g>
		<path d="M444.374-185.873h-66.302l-8.794-32.892l2.696,0.491c0.169,0.031,15.79,3.044,39.262,3.224    c23.446-0.18,39.067-3.193,39.232-3.223l2.7-0.493L444.374-185.873z M380.738-189.344h60.97l6.705-25.081    c-5.503,0.828-18.928,2.708-37.177,2.847c-18.272-0.14-31.7-2.02-37.204-2.847L380.738-189.344z"/>
	</g>
</g>
<g>
	<path d="M178.176-174.794c3.304-3.262,5.356-7.789,5.356-12.798v-35.721h-5.496c0,11.984-3.764,22.911-11.055,33.021   C172.831-187.228,177.077-181.537,178.176-174.794z"/>
	<path d="M178.382-173.664c0.057,1.668,0.098,2.308,0.098,2.958c0,0.181-0.023,0.355-0.027,0.535h31.029v-3.493H178.382z"/>
	<path d="M135.722-171.352c0-1.062,0.104-2.098,0.254-3.119h-6.436v4.865l6.27,0.002   C135.763-170.182,135.722-170.762,135.722-171.352z"/>
</g>
<path d="M157.081-151.106c-11.1,0-20.129-9.029-20.129-20.127c0-11.1,9.029-20.129,20.129-20.129  c11.096,0,20.125,9.029,20.125,20.129C177.206-160.136,168.177-151.106,157.081-151.106 M157.087-188.574  c-9.558,0-17.34,7.774-17.34,17.338c0,9.56,7.782,17.334,17.34,17.334c9.56,0,17.336-7.774,17.336-17.334  C174.423-180.8,166.646-188.574,157.087-188.574"/>
<path d="M157.226-175.823c-2.467,0-4.469,2.006-4.469,4.473c0,2.463,2.002,4.465,4.469,4.465c2.465,0,4.469-2.002,4.469-4.465  C161.694-173.817,159.69-175.823,157.226-175.823"/>
<g>
	<g>
		<path d="M304.369-71.505l2.452,5.499l-0.196,0.111c-4.775,2.719-7.626,7.613-7.626,13.096c0,8.323,6.771,15.095,15.094,15.095    s15.094-6.771,15.094-15.095c0-8.322-6.771-15.094-15.094-15.094c-1.444,0-2.892,0.216-4.302,0.641l-0.211,0.063l-7.582-16.981    l-1.234,0.333l0,0c0,0-0.596,0.164-1.413,0.164c-1.639,0-2.829-0.622-3.538-1.85l-0.375-0.649l-2.599,1.5l0.376,0.65    c1.688,2.914,4.612,3.35,6.206,3.35c0.223,0,0.445-0.009,0.665-0.025l0.176-0.014l2.099,4.706h-23.521l0.88-2.051l0.199,0.04    c0.474,0.097,0.954,0.169,1.427,0.216l3.335-0.067l0.896-0.141v-4.599l-0.898,0.182c-0.634,0.129-1.285,0.194-1.936,0.194    c-2.587,0-5.016-1.006-6.838-2.831l-0.53-0.53l-3.185,3.182l0.53,0.53c1.141,1.141,2.458,2.07,3.916,2.763l0.22,0.104    l-5.227,11.873l-0.213-0.067c-1.455-0.454-2.952-0.685-4.45-0.685c-8.322,0-15.094,6.771-15.094,15.094    c0,8.323,6.771,15.095,15.094,15.095c7.785,0,14.234-5.836,15.001-13.575l0.022-0.226h13.543L304.369-71.505z M314.055-40.65    c-6.697,0-12.146-5.45-12.146-12.148c0-4.282,2.194-8.162,5.869-10.378l0.242-0.146l4.101,9.191l-0.059,0.107    c-0.188,0.349-0.286,0.743-0.286,1.14c0,1.338,1.088,2.426,2.426,2.426s2.427-1.088,2.427-2.426c0-1.013-0.643-1.927-1.598-2.273    l-0.101-0.037l-4.145-9.291l0.286-0.074c0.983-0.254,1.987-0.383,2.983-0.383c6.696,0,12.145,5.448,12.145,12.145    C326.199-46.101,320.751-40.65,314.055-40.65z M266.927-40.65c-6.697,0-12.146-5.45-12.146-12.148    c0-6.696,5.449-12.145,12.146-12.145c1.078,0,2.16,0.15,3.217,0.445l0.278,0.078l-1.805,4.061l-0.277,0.705l0.009,0.005    l-1.96,4.439l-0.104,0.035c-0.979,0.333-1.637,1.253-1.637,2.29c0,1.338,1.088,2.426,2.426,2.426c0.761,0,1.462-0.346,1.924-0.948    l0.075-0.098h9.918l-0.036,0.282C278.179-45.195,273.008-40.65,266.927-40.65z M293.578-54.505h-11.632l-0.028-0.218    c-0.593-4.584-3.331-8.727-7.326-11.081l-0.191-0.113l3.131-7.088h24.221L293.578-54.505z M278.942-54.505h-9.585l3.838-8.685    l0.245,0.157c2.895,1.855,4.882,4.857,5.452,8.235L278.942-54.505z"/>
	</g>
</g>
<g>
	<g>
		<path d="M423.444-71.36l2.452,5.499L425.7-65.75c-4.776,2.718-7.627,7.613-7.627,13.096c0,8.323,6.771,15.095,15.094,15.095    s15.094-6.771,15.094-15.095c0-8.322-6.771-15.094-15.094-15.094c-1.444,0-2.891,0.216-4.301,0.641l-0.205,0.062l-7.023-14.698    l5.802-0.001c0.403,0,0.645,0.385,0.645,0.756c0,0.177-0.055,0.341-0.153,0.464c-0.119,0.147-0.299,0.229-0.505,0.229h-1.292    v2.429h2.299c1.62,0,2.938-1.318,2.938-2.939c0-2.904-2.034-3.938-3.938-3.938l-10.581,0.001l4.517,8.884h-23.506l0.807-2.126    l0.208,0.042c0.464,0.094,0.931,0.164,1.389,0.209l3.334-0.067l0.896-0.141v-4.599l-0.898,0.182    c-0.634,0.129-1.285,0.194-1.936,0.194c-2.587,0-5.016-1.006-6.838-2.831l-0.53-0.53l-3.185,3.181l0.53,0.531    c1.144,1.145,2.466,2.076,3.928,2.769l0.218,0.103l-5.09,11.945l-0.216-0.067c-1.45-0.452-2.943-0.682-4.44-0.682    c-8.322,0-15.094,6.771-15.094,15.094c0,8.323,6.771,15.095,15.094,15.095c7.785,0,14.234-5.836,15.001-13.575l0.022-0.226h13.544    L423.444-71.36z M433.129-40.506c-6.697,0-12.146-5.45-12.146-12.148c0-4.282,2.194-8.162,5.87-10.378l0.242-0.146l4.101,9.191    l-0.059,0.107c-0.188,0.349-0.286,0.743-0.286,1.14c0,1.338,1.088,2.426,2.426,2.426s2.427-1.088,2.427-2.426    c0-1.013-0.642-1.927-1.597-2.273l-0.101-0.037l-4.145-9.291l0.286-0.074c0.983-0.254,1.986-0.383,2.981-0.383    c6.696,0,12.145,5.448,12.145,12.145C445.273-45.956,439.825-40.506,433.129-40.506z M386.001-40.506    c-6.697,0-12.146-5.45-12.146-12.148c0-6.696,5.449-12.145,12.146-12.145c1.078,0,2.16,0.15,3.217,0.445l0.278,0.078l-1.805,4.061    l-0.277,0.705l0.009,0.005l-1.96,4.44l-0.104,0.035c-0.979,0.332-1.636,1.252-1.636,2.289c0,1.338,1.088,2.426,2.426,2.426    c0.762,0,1.462-0.346,1.923-0.947l0.074-0.099h9.919l-0.036,0.282C397.253-45.051,392.082-40.506,386.001-40.506z M412.652-54.36    h-11.632l-0.028-0.218c-0.593-4.584-3.331-8.727-7.326-11.081l-0.191-0.113l3.132-7.088h24.221L412.652-54.36z M398.017-54.36    h-9.584l3.838-8.685l0.245,0.157c2.895,1.855,4.881,4.856,5.451,8.235L398.017-54.36z"/>
	</g>
</g>
<g>
	<g>
		<path d="M161.219-63.883h20.074l0.678,1.507l-0.285,0.171c-4.041,2.421-6.453,6.671-6.453,11.369    c0,7.318,5.953,13.271,13.271,13.271s13.271-5.953,13.271-13.271c0-7.317-5.953-13.271-13.271-13.271    c-1.243,0-2.486,0.181-3.698,0.538l-0.313,0.093l-6.713-14.927h-8.989v2.75H176l4.057,9.02h-17.653l1.013-2.245l0.294,0.061    c0.472,0.097,0.95,0.169,1.421,0.216l3.318-0.067l0.775-0.122v-4.34l-0.75,0.151c-0.643,0.131-1.301,0.196-1.958,0.196    c-2.622,0-5.083-1.019-6.929-2.867l-0.441-0.441l-3.008,3.002l0.441,0.443c1.133,1.133,2.441,2.055,3.887,2.74l0.329,0.156    l-5.247,11.947l-0.309-0.079c-0.805-0.206-1.626-0.311-2.441-0.311c-5.512,0-9.997,4.484-9.997,9.997s4.485,9.997,9.997,9.997    s9.997-4.484,9.997-9.997c0-3.317-1.647-6.413-4.406-8.279l-0.257-0.173L161.219-63.883z M188.472-40.803    c-5.531,0-10.031-4.501-10.031-10.033c0-3.364,1.679-6.485,4.489-8.348l0.368-0.244l3.3,7.339l-0.08,0.159    c-0.16,0.318-0.244,0.672-0.244,1.021c0,1.269,1.032,2.301,2.301,2.301c1.27,0,2.302-1.032,2.302-2.301    c0-0.969-0.649-1.863-1.577-2.175l-0.156-0.052l-3.316-7.376l0.445-0.103c0.725-0.167,1.466-0.252,2.2-0.252    c5.53,0,10.029,4.499,10.029,10.029C198.501-45.304,194.002-40.803,188.472-40.803z M152.775-41.159    c-3.879,0-7.035-3.156-7.035-7.036c0-4.245,3.83-7.646,8.148-6.944l0.477,0.077l-2.354,5.436l-0.086,0.061    c-0.428,0.301-0.683,0.794-0.683,1.319c0,0.894,0.727,1.62,1.62,1.62c0.895,0,1.621-0.727,1.621-1.62l0.027-0.233l1.987-4.589    l0.092,0.039l0.356-0.838l0.389,0.332c1.572,1.348,2.475,3.294,2.475,5.341C159.811-44.315,156.654-41.159,152.775-41.159z"/>
	</g>
</g>
<path d="M537.203-54.972c0-6.628-1.373-12-8-12h-6.961h-17.84c-6.628,0-8,5.372-8,12v8l3.419,0.014  c1.476-2.784,4.279-4.67,7.493-4.67c3.213,0,6.02,1.886,7.492,4.67l28.844-0.013c7.443,0,13.5-6.057,13.5-13.5v-23.115l0.043-0.087  l-0.043-0.021v-0.026h-0.053l-14.229-7.034l-1.436,3.475l12.367,6.113v20.918c0,5.669-4.613,10.282-10.282,10.282l-6.245,0.022  L537.203-54.972z"/>
<g>
	<path d="M41.671-192.718c2.095,0.491,4.045,1.283,5.811,2.317l-1.1-6.084l-22.739,0.152l-2.452-12.54   c-0.528-2.632-2.678-5.157-4.8-5.638l-0.073,0.072c-2.121-0.48-3.41,1.265-2.88,3.898l2.395,11.904   c0.058,0.291,0.14,0.58,0.234,0.865l2.833,14.581C23.511-190.73,32.606-194.844,41.671-192.718z"/>
	<path d="M61.067-176.895v-2.092H56.75c0.233,0.684,0.436,1.381,0.601,2.092H61.067z"/>
</g>
<polygon points="267.937,-296.636 261.37,-287.466 297.469,-293.647 286.486,-300.744 "/>
<polygon points="284.927,-302.387 282.476,-304.491 263.522,-299.867 266.969,-298.385 "/>
<g>
	<path d="M255.429-284.685l-2.274,5.822L307.665-281c11.139-0.437,17.294-14.829,17.256-15.139L255.429-284.685z"/>
</g>
<rect x="180.565" y="-53.326" width="3.739" height="2"/>
<rect x="192.597" y="-49.879" width="3.739" height="2"/>
<g>
	<path d="M55.813-60.395c-2.042-1.654-4.427-2.605-6.862-2.893l-0.094-15.808c2.771-0.396,5.438-1.657,7.565-3.782L54.304-85   c-4.066,4.061-10.677,4.057-14.737-0.009l-2.123,2.12c2.281,2.283,5.186,3.57,8.17,3.865l0.094,15.746   c-3.324,0.414-6.5,2.055-8.771,4.857c-4.66,5.748-3.774,14.217,1.974,18.877c5.749,4.66,14.217,3.775,18.876-1.975   C62.447-47.266,61.562-55.734,55.813-60.395 M55.456-43.406c-3.618,4.463-10.193,5.152-14.658,1.533   c-4.463-3.619-5.151-10.195-1.532-14.658c1.68-2.072,3.999-3.32,6.446-3.711l0.021,8.633c-0.034,0.037-0.075,0.068-0.108,0.109   c-0.775,0.957-0.629,2.367,0.33,3.143c0.955,0.777,2.366,0.629,3.143-0.328c0.713-0.881,0.639-2.135-0.119-2.936l-0.02-8.633   c1.764,0.271,3.481,0.988,4.966,2.189C58.389-54.445,59.075-47.869,55.456-43.406"/>
</g>
<rect x="39.691" y="-53.1" width="3.739" height="2"/>
<rect x="51.723" y="-49.652" width="3.739" height="2"/>
<rect x="291.323" y="-49.879" width="3.738" height="2"/>
<rect x="283.299" y="-57.903" width="3.738" height="2"/>
<rect x="410.156" y="-49.879" width="3.738" height="2"/>
<rect x="402.132" y="-57.903" width="3.738" height="2"/>
<path d="M416-392.644c-0.569,0.17-1.159,0.259-1.761,0.259c-3.386,0-6.139-2.755-6.139-6.141l-0.021-67.227l-1.61-1.019  l-15.32,3.477l-0.452-1.77l15.664-3.554l0.998-1.582l1.578,0.997l15.496-3.516l0.409,1.779l-15.201,3.45l-0.65,1.028l0.023,65.437  c0,2.834,2.391,4.272,5.226,4.272c0.504,0,0.789-0.018,1.266-0.16l18.729-4.201l0.409,4.279L416-392.644z"/>
<polygon points="288.467,-451.107 288.46,-451.108 288.459,-442.134 291.207,-442.131 291.205,-440.511 284.064,-440.516   284.065,-442.137 286.835,-442.135 286.848,-451.102 "/>
<polygon points="290.584,-468.45 291.046,-468.951 288.512,-469.521 285.977,-470.091 286.176,-469.45 271.771,-472.719   271.363,-470.94 286.564,-467.49 286.82,-467.389 287.131,-466.393 287.195,-450.566 288.107,-450.566 288.124,-465.782   289.164,-466.91 289.736,-466.771 305.057,-463.294 305.508,-465.064 "/>
<polygon points="173.918,-468.45 174.38,-468.951 171.846,-469.521 169.311,-470.091 169.51,-469.45 155.105,-472.719   154.697,-470.94 169.898,-467.49 170.154,-467.389 170.465,-466.393 170.529,-392 171.441,-392 171.458,-465.782 172.498,-466.91   173.07,-466.771 188.391,-463.294 188.842,-465.064 "/>
<path d="M563.536-75.06c-2.467,0-4.469,2.006-4.469,4.473c0,2.463,2.002,4.465,4.469,4.465c2.465,0,4.469-2.002,4.469-4.465  C568.005-73.054,566.001-75.06,563.536-75.06"/>
<path d="M-86.928-35.445c-2.726,0-4.942-2.219-4.942-4.943c0-2.726,2.217-4.942,4.942-4.942s4.942,2.217,4.942,4.942  C-81.985-37.664-84.202-35.445-86.928-35.445 M-86.928-44.227c-2.116,0-3.837,1.722-3.837,3.838s1.721,3.839,3.837,3.839  s3.838-1.723,3.838-3.839S-84.812-44.227-86.928-44.227"/>
<path d="M-86.892-41.515c-0.606,0-1.098,0.492-1.098,1.098s0.492,1.098,1.098,1.098c0.604,0,1.096-0.492,1.096-1.098  S-86.287-41.515-86.892-41.515"/>
<path d="M-56.928-35.445c-2.726,0-4.942-2.219-4.942-4.943c0-2.726,2.217-4.942,4.942-4.942s4.942,2.217,4.942,4.942  C-51.985-37.664-54.202-35.445-56.928-35.445 M-56.928-44.227c-2.116,0-3.837,1.722-3.837,3.838s1.721,3.839,3.837,3.839  s3.838-1.723,3.838-3.839S-54.812-44.227-56.928-44.227"/>
<path d="M-56.892-41.515c-0.606,0-1.098,0.492-1.098,1.098s0.492,1.098,1.098,1.098c0.604,0,1.096-0.492,1.096-1.098  S-56.287-41.515-56.892-41.515"/>
<path d="M-63.156-88.034v5h10.142v34.765c-1.197-0.519-2.487-0.788-3.807-0.788c-2.93,0-5.706,1.351-7.527,3.637h-15.189  c-1.819-2.286-4.595-3.637-7.527-3.637c-3.468,0-6.681,1.882-8.385,4.911l-0.849,1.51l3.884-0.044  c0.82-2.199,2.935-3.772,5.417-3.772c2.75,0,5.055,1.931,5.639,4.507h18.889c0.584-2.576,2.888-4.507,5.639-4.507  c2.75,0,5.055,1.931,5.639,4.507h1.678v-46.088H-63.156z"/>
<rect x="159.294" y="-402.597" width="22.882" height="4.125"/>
<circle cx="170.981" cy="-396.281" r="2.234"/>
<polygon points="95.354,-472.919 93.651,-473.434 92.265,-468.843 90.731,-468.843 90.731,-467.313 91.802,-467.313   90.006,-461.364 88.358,-461.364 88.358,-459.834 89.543,-459.834 87.747,-453.885 86.282,-453.885 86.282,-452.355   87.285,-452.355 85.488,-446.406 84.058,-446.406 84.058,-444.876 85.026,-444.876 83.229,-438.927 81.834,-438.927   81.834,-437.397 82.768,-437.397 80.971,-431.449 79.609,-431.449 79.609,-429.918 80.509,-429.918 78.712,-423.969   77.385,-423.969 77.385,-422.439 78.25,-422.439 76.453,-416.49 75.16,-416.49 75.16,-414.961 75.991,-414.961 74.195,-409.012   72.936,-409.012 72.936,-407.481 73.732,-407.481 71.936,-401.532 70.712,-401.532 70.712,-400.003 71.474,-400.003   69.677,-394.053 68.191,-394.053 68.191,-392.524 69.215,-392.524 66.959,-385.054 68.663,-384.54 71.074,-392.524 72.627,-392.524   72.627,-394.053 71.536,-394.053 73.333,-400.003 75.148,-400.003 75.148,-401.532 73.794,-401.532 75.591,-407.481   77.372,-407.481 77.372,-409.012 76.054,-409.012 77.85,-414.961 79.596,-414.961 79.596,-416.49 78.312,-416.49 80.109,-422.439   81.821,-422.439 81.821,-423.969 80.571,-423.969 82.368,-429.918 84.045,-429.918 84.045,-431.449 82.83,-431.449 84.626,-437.397   86.269,-437.397 86.269,-438.927 85.088,-438.927 86.885,-444.876 88.494,-444.876 88.494,-446.406 87.347,-446.406   89.144,-452.355 90.718,-452.355 90.718,-453.885 89.606,-453.885 91.402,-459.834 92.794,-459.834 92.794,-461.364   91.864,-461.364 93.661,-467.313 95.167,-467.313 95.167,-468.843 94.123,-468.843 "/>
<path d="M-70.999-477.915l-0.005-0.005l-3.609,3.609c-0.519,1.813-0.179,2.926,0.071,3.43l0.073,0.073l3.402-3.402  C-70.427-476.144-70.738-477.348-70.999-477.915z"/>
<path d="M-70.999-473.491l-0.005-0.006l-3.609,3.609c-0.519,1.812-0.179,2.926,0.071,3.43l0.073,0.073l3.402-3.401  C-70.427-471.721-70.738-472.925-70.999-473.491z"/>
<path d="M-70.999-469.071l-0.005-0.005l-3.609,3.609c-0.519,1.813-0.179,2.926,0.071,3.43l0.073,0.073l3.402-3.401  C-70.427-467.301-70.738-468.504-70.999-469.071z"/>
<path d="M-70.999-464.648l-0.005-0.005l-3.609,3.608c-0.519,1.813-0.179,2.927,0.071,3.43l0.073,0.073l3.402-3.402  C-70.427-462.878-70.738-464.081-70.999-464.648z"/>
<path d="M-70.999-460.165l-0.005-0.005l-3.609,3.609c-0.519,1.813-0.179,2.926,0.071,3.43l0.073,0.073l3.402-3.402  C-70.427-458.394-70.738-459.598-70.999-460.165z"/>
<path d="M-70.999-455.741l-0.005-0.006l-3.609,3.609c-0.519,1.812-0.179,2.926,0.071,3.43l0.073,0.073l3.402-3.401  C-70.427-453.971-70.738-455.175-70.999-455.741z"/>
<path d="M-70.999-451.321l-0.005-0.005l-3.609,3.609c-0.519,1.813-0.179,2.926,0.071,3.43l0.073,0.073l3.402-3.401  C-70.427-449.551-70.738-450.754-70.999-451.321z"/>
<path d="M-70.999-446.898l-0.005-0.005l-3.609,3.608c-0.519,1.813-0.179,2.927,0.071,3.43l0.073,0.073l3.402-3.402  C-70.427-445.128-70.738-446.331-70.999-446.898z"/>
<path d="M-70.999-442.498l-0.005-0.005l-3.609,3.608c-0.519,1.813-0.179,2.927,0.071,3.43l0.073,0.073l3.402-3.402  C-70.427-440.728-70.738-441.931-70.999-442.498z"/>
<path d="M-70.999-438.075l-0.005-0.005l-3.609,3.609c-0.519,1.813-0.179,2.926,0.071,3.43l0.073,0.073l3.402-3.402  C-70.427-436.304-70.738-437.508-70.999-438.075z"/>
<path d="M-70.999-433.654l-0.005-0.006l-3.609,3.609c-0.519,1.812-0.179,2.926,0.071,3.43l0.073,0.073l3.402-3.401  C-70.427-431.884-70.738-433.088-70.999-433.654z"/>
<path d="M-70.999-429.231l-0.005-0.005l-3.609,3.609c-0.519,1.813-0.179,2.926,0.071,3.43l0.073,0.073l3.402-3.401  C-70.427-427.461-70.738-428.665-70.999-429.231z"/>
<path d="M-70.999-424.748l-0.005-0.005l-3.609,3.608c-0.519,1.813-0.179,2.927,0.071,3.43l0.073,0.073l3.402-3.402  C-70.427-422.978-70.738-424.181-70.999-424.748z"/>
<path d="M-70.999-420.325l-0.005-0.005l-3.609,3.609c-0.519,1.813-0.179,2.926,0.071,3.43l0.073,0.073l3.402-3.402  C-70.427-418.554-70.738-419.758-70.999-420.325z"/>
<path d="M-70.999-415.904l-0.005-0.006l-3.609,3.609c-0.519,1.812-0.179,2.926,0.071,3.43l0.073,0.073l3.402-3.401  C-70.427-414.134-70.738-415.338-70.999-415.904z"/>
<path d="M-70.999-411.481l-0.005-0.005l-3.609,3.609c-0.519,1.813-0.179,2.926,0.071,3.43l0.073,0.073l3.402-3.401  C-70.427-409.711-70.738-410.915-70.999-411.481z"/>
<path d="M-70.999-407.165l-0.005-0.005l-3.609,3.609c-0.519,1.813-0.179,2.926,0.071,3.43l0.073,0.073l3.402-3.402  C-70.427-405.394-70.738-406.598-70.999-407.165z"/>
<path d="M-70.999-402.741l-0.005-0.006l-3.609,3.609c-0.519,1.812-0.179,2.926,0.071,3.43l0.073,0.073l3.402-3.401  C-70.427-400.971-70.738-402.175-70.999-402.741z"/>
<path d="M-70.999-398.321l-0.005-0.005l-3.609,3.609c-0.519,1.813-0.179,2.926,0.071,3.43l0.073,0.073l3.402-3.401  C-70.427-396.551-70.738-397.754-70.999-398.321z"/>
<path d="M-70.999-393.898l-0.005-0.005l-3.609,3.608c-0.519,1.813-0.179,2.927,0.071,3.43l0.073,0.073l3.402-3.402  C-70.427-392.128-70.738-393.331-70.999-393.898z"/>
<path d="M-70.999-389.415l-0.005-0.005l-3.609,3.609c-0.519,1.813-0.179,2.926,0.071,3.43l0.073,0.073l3.402-3.402  C-70.427-387.644-70.738-388.848-70.999-389.415z"/>
<path fill="#000000" d="M531.459-190.005v-9.886h-36.741c-2.701,2.783-4.807,6.146-6.113,9.886H531.459z"/>
<path d="M510.645-167.992c-2.775,0-5.033,2.258-5.033,5.033s2.258,5.033,5.033,5.033s5.033-2.258,5.033-5.033  S513.42-167.992,510.645-167.992z M510.745-161.397c-0.82,0-1.49-0.67-1.49-1.49c0-0.824,0.67-1.49,1.49-1.49  c0.822,0,1.49,0.666,1.49,1.49C512.235-162.067,511.567-161.397,510.745-161.397z"/>
<path d="M495.608-167.992c-2.775,0-5.033,2.258-5.033,5.033s2.258,5.033,5.033,5.033s5.033-2.258,5.033-5.033  S498.384-167.992,495.608-167.992z M495.709-161.397c-0.82,0-1.49-0.67-1.49-1.49c0-0.824,0.67-1.49,1.49-1.49  c0.822,0,1.49,0.666,1.49,1.49C497.199-162.067,496.531-161.397,495.709-161.397z"/>
<path d="M-47.514,81.906c-2.044,0-3.707-1.663-3.707-3.707c0-2.043,1.663-3.706,3.707-3.706c2.044,0,3.707,1.663,3.707,3.706  C-43.808,80.243-45.47,81.906-47.514,81.906"/>
<path fill="#000000" d="M-47.487,77.355c-0.455,0-0.824,0.369-0.824,0.823s0.369,0.823,0.824,0.823c0.454,0,0.822-0.369,0.822-0.823  S-47.034,77.355-47.487,77.355"/>
<g>
	<path d="M-82.609,82.254l-3.24-0.245l4.347-57.329c0.024-3.315,2.772-6.041,6.124-6.041h2.679v-1.18h15.125v1.18h1.565   c3.35,0,6.097,2.725,6.125,6.074l3.953,49.319l-0.676-0.169c-0.68-0.171-1.344-0.149-1.989,0.043l-0.589,0.175l-0.855-10.122   h-31.182L-82.609,82.254z M-80.975,60.709h30.675l-2.084-26.375h-26.592L-80.975,60.709z M-78.729,31.084h26.089l-0.493-6.238   c-0.001-1.667-1.291-2.957-2.876-2.957h-1.565v1.07h-15.125v-1.07h-2.679c-1.585,0-2.875,1.29-2.875,2.875l-0.004,0.107   L-78.729,31.084z"/>
</g>
<path d="M75.99,81.441c-0.13,0.801-0.386,1.559-0.756,2.25h3.458v-2.25H75.99z"/>
<path d="M70.262,56.013V44.59h-29.25V20.777c0-0.932-0.756-1.688-1.688-1.688c-0.932,0-1.688,0.756-1.688,1.688v0.188h-7.782v2.25  h7.782v10.029c0,0.002,0,0.002,0,0.002v18.338c-9.635,0.022-17.467,7.869-17.467,17.508c0,9.654,7.855,17.51,17.509,17.51  c9.602,0,17.42-7.771,17.504-17.355h12.844v4.086c0.297-0.039,0.597-0.064,0.903-0.064c0.461,0,0.91,0.048,1.347,0.133V56.013  H70.262z M39.887,53.516c6.93,0.998,12.412,6.529,13.341,13.48H39.887V53.516z M37.632,84.836c-8.68,0-15.742-7.064-15.742-15.744  c0-8.679,7.062-15.74,15.742-15.74c0.002,0,0.004,0,0.005,0v13.596c-1.047,0.09-1.872,0.969-1.872,2.038  c0,1.128,0.917,2.046,2.046,2.046c1.04,0,1.899-0.78,2.028-1.785h13.529C53.284,77.855,46.258,84.836,37.632,84.836z M55.058,66.996  c-0.952-7.942-7.242-14.266-15.17-15.27v-1.6c5.439,0.63,10.188,3.554,13.254,7.775h14.886v9.094H55.058z"/>
<path d="M63.895,43.369H46.634c-0.622,0-1.125-0.504-1.125-1.125c0-0.622,0.503-1.125,1.125-1.125h17.261  c0.621,0,1.125,0.503,1.125,1.125C65.02,42.865,64.516,43.369,63.895,43.369z"/>
<path d="M68.922,86.447c-3.256,0-5.905-2.65-5.905-5.906c0-3.258,2.648-5.906,5.905-5.906s5.906,2.648,5.906,5.906  C74.828,83.797,72.179,86.447,68.922,86.447 M68.922,75.955c-2.528,0-4.585,2.057-4.585,4.586c0,2.527,2.057,4.586,4.585,4.586  s4.586-2.059,4.586-4.586C73.508,78.012,71.451,75.955,68.922,75.955"/>
<path d="M68.965,79.195c-0.724,0-1.311,0.588-1.311,1.311c0,0.725,0.587,1.312,1.311,1.312c0.723,0,1.311-0.587,1.311-1.312  C70.275,79.783,69.688,79.195,68.965,79.195"/>
<path d="M87.395-173.757H56.973c-0.879-10.214-9.454-18.265-19.894-18.265c-11.021,0-19.991,8.969-19.991,19.991  c0,11.025,8.97,19.992,19.991,19.992c10.424,0,18.99-8.028,19.891-18.225h30.424V-173.757z M37.029-154.055  c-9.912,0-17.974-8.064-17.974-17.977c0-9.908,8.062-17.972,17.974-17.972c9.324,0,16.991,7.146,17.865,16.247H38.919  c-0.426-0.447-1.021-0.731-1.687-0.731c-1.288,0-2.334,1.049-2.334,2.336c0,1.289,1.046,2.336,2.334,2.336  c0.504,0,0.96-0.175,1.342-0.447h16.315C53.995-161.182,46.337-154.055,37.029-154.055z"/>
</svg>