<?xml version="1.0" encoding="utf-8"?>
<svg version="1.1" baseProfile="full"  width="405" height="405" viewBox="0 0 405 405"
		 xmlns="http://www.w3.org/2000/svg" xmlns:xlink="http://www.w3.org/1999/xlink" xmlns:ev="http://www.w3.org/2001/xml-events">
<desc></desc>
<rect width="405" height="405" fill="#ffffff" cx="0" cy="0" />
<defs>
<rect id="p" width="9" height="9" />
</defs>
<g fill="#000000">
<use x="36" y="36" xlink:href="#p" />
<use x="36" y="45" xlink:href="#p" />
<use x="36" y="54" xlink:href="#p" />
<use x="36" y="63" xlink:href="#p" />
<use x="36" y="72" xlink:href="#p" />
<use x="36" y="81" xlink:href="#p" />
<use x="36" y="90" xlink:href="#p" />
<use x="36" y="108" xlink:href="#p" />
<use x="36" y="135" xlink:href="#p" />
<use x="36" y="144" xlink:href="#p" />
<use x="36" y="153" xlink:href="#p" />
<use x="36" y="171" xlink:href="#p" />
<use x="36" y="180" xlink:href="#p" />
<use x="36" y="225" xlink:href="#p" />
<use x="36" y="252" xlink:href="#p" />
<use x="36" y="306" xlink:href="#p" />
<use x="36" y="315" xlink:href="#p" />
<use x="36" y="324" xlink:href="#p" />
<use x="36" y="333" xlink:href="#p" />
<use x="36" y="342" xlink:href="#p" />
<use x="36" y="351" xlink:href="#p" />
<use x="36" y="360" xlink:href="#p" />
<use x="45" y="36" xlink:href="#p" />
<use x="45" y="90" xlink:href="#p" />
<use x="45" y="135" xlink:href="#p" />
<use x="45" y="144" xlink:href="#p" />
<use x="45" y="162" xlink:href="#p" />
<use x="45" y="171" xlink:href="#p" />
<use x="45" y="189" xlink:href="#p" />
<use x="45" y="216" xlink:href="#p" />
<use x="45" y="225" xlink:href="#p" />
<use x="45" y="252" xlink:href="#p" />
<use x="45" y="261" xlink:href="#p" />
<use x="45" y="270" xlink:href="#p" />
<use x="45" y="279" xlink:href="#p" />
<use x="45" y="288" xlink:href="#p" />
<use x="45" y="306" xlink:href="#p" />
<use x="45" y="360" xlink:href="#p" />
<use x="54" y="36" xlink:href="#p" />
<use x="54" y="54" xlink:href="#p" />
<use x="54" y="63" xlink:href="#p" />
<use x="54" y="72" xlink:href="#p" />
<use x="54" y="90" xlink:href="#p" />
<use x="54" y="135" xlink:href="#p" />
<use x="54" y="234" xlink:href="#p" />
<use x="54" y="243" xlink:href="#p" />
<use x="54" y="261" xlink:href="#p" />
<use x="54" y="306" xlink:href="#p" />
<use x="54" y="324" xlink:href="#p" />
<use x="54" y="333" xlink:href="#p" />
<use x="54" y="342" xlink:href="#p" />
<use x="54" y="360" xlink:href="#p" />
<use x="63" y="36" xlink:href="#p" />
<use x="63" y="54" xlink:href="#p" />
<use x="63" y="63" xlink:href="#p" />
<use x="63" y="72" xlink:href="#p" />
<use x="63" y="90" xlink:href="#p" />
<use x="63" y="117" xlink:href="#p" />
<use x="63" y="135" xlink:href="#p" />
<use x="63" y="144" xlink:href="#p" />
<use x="63" y="153" xlink:href="#p" />
<use x="63" y="180" xlink:href="#p" />
<use x="63" y="198" xlink:href="#p" />
<use x="63" y="207" xlink:href="#p" />
<use x="63" y="216" xlink:href="#p" />
<use x="63" y="243" xlink:href="#p" />
<use x="63" y="261" xlink:href="#p" />
<use x="63" y="270" xlink:href="#p" />
<use x="63" y="288" xlink:href="#p" />
<use x="63" y="306" xlink:href="#p" />
<use x="63" y="324" xlink:href="#p" />
<use x="63" y="333" xlink:href="#p" />
<use x="63" y="342" xlink:href="#p" />
<use x="63" y="360" xlink:href="#p" />
<use x="72" y="36" xlink:href="#p" />
<use x="72" y="54" xlink:href="#p" />
<use x="72" y="63" xlink:href="#p" />
<use x="72" y="72" xlink:href="#p" />
<use x="72" y="90" xlink:href="#p" />
<use x="72" y="135" xlink:href="#p" />
<use x="72" y="153" xlink:href="#p" />
<use x="72" y="162" xlink:href="#p" />
<use x="72" y="171" xlink:href="#p" />
<use x="72" y="180" xlink:href="#p" />
<use x="72" y="189" xlink:href="#p" />
<use x="72" y="216" xlink:href="#p" />
<use x="72" y="234" xlink:href="#p" />
<use x="72" y="243" xlink:href="#p" />
<use x="72" y="252" xlink:href="#p" />
<use x="72" y="261" xlink:href="#p" />
<use x="72" y="270" xlink:href="#p" />
<use x="72" y="279" xlink:href="#p" />
<use x="72" y="288" xlink:href="#p" />
<use x="72" y="306" xlink:href="#p" />
<use x="72" y="324" xlink:href="#p" />
<use x="72" y="333" xlink:href="#p" />
<use x="72" y="342" xlink:href="#p" />
<use x="72" y="360" xlink:href="#p" />
<use x="81" y="36" xlink:href="#p" />
<use x="81" y="90" xlink:href="#p" />
<use x="81" y="144" xlink:href="#p" />
<use x="81" y="162" xlink:href="#p" />
<use x="81" y="189" xlink:href="#p" />
<use x="81" y="243" xlink:href="#p" />
<use x="81" y="261" xlink:href="#p" />
<use x="81" y="279" xlink:href="#p" />
<use x="81" y="288" xlink:href="#p" />
<use x="81" y="306" xlink:href="#p" />
<use x="81" y="360" xlink:href="#p" />
<use x="90" y="36" xlink:href="#p" />
<use x="90" y="45" xlink:href="#p" />
<use x="90" y="54" xlink:href="#p" />
<use x="90" y="63" xlink:href="#p" />
<use x="90" y="72" xlink:href="#p" />
<use x="90" y="81" xlink:href="#p" />
<use x="90" y="90" xlink:href="#p" />
<use x="90" y="108" xlink:href="#p" />
<use x="90" y="126" xlink:href="#p" />
<use x="90" y="144" xlink:href="#p" />
<use x="90" y="162" xlink:href="#p" />
<use x="90" y="180" xlink:href="#p" />
<use x="90" y="198" xlink:href="#p" />
<use x="90" y="216" xlink:href="#p" />
<use x="90" y="234" xlink:href="#p" />
<use x="90" y="252" xlink:href="#p" />
<use x="90" y="270" xlink:href="#p" />
<use x="90" y="288" xlink:href="#p" />
<use x="90" y="306" xlink:href="#p" />
<use x="90" y="315" xlink:href="#p" />
<use x="90" y="324" xlink:href="#p" />
<use x="90" y="333" xlink:href="#p" />
<use x="90" y="342" xlink:href="#p" />
<use x="90" y="351" xlink:href="#p" />
<use x="90" y="360" xlink:href="#p" />
<use x="99" y="117" xlink:href="#p" />
<use x="99" y="135" xlink:href="#p" />
<use x="99" y="153" xlink:href="#p" />
<use x="99" y="189" xlink:href="#p" />
<use x="99" y="216" xlink:href="#p" />
<use x="99" y="261" xlink:href="#p" />
<use x="108" y="45" xlink:href="#p" />
<use x="108" y="54" xlink:href="#p" />
<use x="108" y="63" xlink:href="#p" />
<use x="108" y="90" xlink:href="#p" />
<use x="108" y="99" xlink:href="#p" />
<use x="108" y="108" xlink:href="#p" />
<use x="108" y="117" xlink:href="#p" />
<use x="108" y="135" xlink:href="#p" />
<use x="108" y="144" xlink:href="#p" />
<use x="108" y="153" xlink:href="#p" />
<use x="108" y="189" xlink:href="#p" />
<use x="108" y="225" xlink:href="#p" />
<use x="108" y="234" xlink:href="#p" />
<use x="108" y="243" xlink:href="#p" />
<use x="108" y="261" xlink:href="#p" />
<use x="108" y="279" xlink:href="#p" />
<use x="108" y="288" xlink:href="#p" />
<use x="108" y="297" xlink:href="#p" />
<use x="108" y="360" xlink:href="#p" />
<use x="117" y="36" xlink:href="#p" />
<use x="117" y="45" xlink:href="#p" />
<use x="117" y="54" xlink:href="#p" />
<use x="117" y="63" xlink:href="#p" />
<use x="117" y="81" xlink:href="#p" />
<use x="117" y="99" xlink:href="#p" />
<use x="117" y="108" xlink:href="#p" />
<use x="117" y="117" xlink:href="#p" />
<use x="117" y="135" xlink:href="#p" />
<use x="117" y="144" xlink:href="#p" />
<use x="117" y="153" xlink:href="#p" />
<use x="117" y="198" xlink:href="#p" />
<use x="117" y="216" xlink:href="#p" />
<use x="117" y="225" xlink:href="#p" />
<use x="117" y="234" xlink:href="#p" />
<use x="117" y="243" xlink:href="#p" />
<use x="117" y="270" xlink:href="#p" />
<use x="117" y="315" xlink:href="#p" />
<use x="117" y="324" xlink:href="#p" />
<use x="117" y="351" xlink:href="#p" />
<use x="126" y="36" xlink:href="#p" />
<use x="126" y="45" xlink:href="#p" />
<use x="126" y="63" xlink:href="#p" />
<use x="126" y="90" xlink:href="#p" />
<use x="126" y="108" xlink:href="#p" />
<use x="126" y="126" xlink:href="#p" />
<use x="126" y="189" xlink:href="#p" />
<use x="126" y="207" xlink:href="#p" />
<use x="126" y="225" xlink:href="#p" />
<use x="126" y="252" xlink:href="#p" />
<use x="126" y="270" xlink:href="#p" />
<use x="126" y="288" xlink:href="#p" />
<use x="126" y="306" xlink:href="#p" />
<use x="126" y="315" xlink:href="#p" />
<use x="126" y="333" xlink:href="#p" />
<use x="126" y="360" xlink:href="#p" />
<use x="135" y="36" xlink:href="#p" />
<use x="135" y="54" xlink:href="#p" />
<use x="135" y="72" xlink:href="#p" />
<use x="135" y="81" xlink:href="#p" />
<use x="135" y="99" xlink:href="#p" />
<use x="135" y="135" xlink:href="#p" />
<use x="135" y="189" xlink:href="#p" />
<use x="135" y="198" xlink:href="#p" />
<use x="135" y="225" xlink:href="#p" />
<use x="135" y="252" xlink:href="#p" />
<use x="135" y="261" xlink:href="#p" />
<use x="135" y="288" xlink:href="#p" />
<use x="135" y="315" xlink:href="#p" />
<use x="135" y="324" xlink:href="#p" />
<use x="135" y="333" xlink:href="#p" />
<use x="135" y="351" xlink:href="#p" />
<use x="144" y="63" xlink:href="#p" />
<use x="144" y="90" xlink:href="#p" />
<use x="144" y="117" xlink:href="#p" />
<use x="144" y="144" xlink:href="#p" />
<use x="144" y="153" xlink:href="#p" />
<use x="144" y="171" xlink:href="#p" />
<use x="144" y="189" xlink:href="#p" />
<use x="144" y="198" xlink:href="#p" />
<use x="144" y="252" xlink:href="#p" />
<use x="144" y="261" xlink:href="#p" />
<use x="144" y="279" xlink:href="#p" />
<use x="144" y="297" xlink:href="#p" />
<use x="144" y="333" xlink:href="#p" />
<use x="144" y="360" xlink:href="#p" />
<use x="153" y="63" xlink:href="#p" />
<use x="153" y="99" xlink:href="#p" />
<use x="153" y="108" xlink:href="#p" />
<use x="153" y="126" xlink:href="#p" />
<use x="153" y="135" xlink:href="#p" />
<use x="153" y="144" xlink:href="#p" />
<use x="153" y="153" xlink:href="#p" />
<use x="153" y="162" xlink:href="#p" />
<use x="153" y="171" xlink:href="#p" />
<use x="153" y="189" xlink:href="#p" />
<use x="153" y="198" xlink:href="#p" />
<use x="153" y="207" xlink:href="#p" />
<use x="153" y="216" xlink:href="#p" />
<use x="153" y="225" xlink:href="#p" />
<use x="153" y="234" xlink:href="#p" />
<use x="153" y="279" xlink:href="#p" />
<use x="153" y="315" xlink:href="#p" />
<use x="153" y="324" xlink:href="#p" />
<use x="153" y="333" xlink:href="#p" />
<use x="153" y="342" xlink:href="#p" />
<use x="162" y="45" xlink:href="#p" />
<use x="162" y="63" xlink:href="#p" />
<use x="162" y="72" xlink:href="#p" />
<use x="162" y="90" xlink:href="#p" />
<use x="162" y="108" xlink:href="#p" />
<use x="162" y="126" xlink:href="#p" />
<use x="162" y="135" xlink:href="#p" />
<use x="162" y="171" xlink:href="#p" />
<use x="162" y="189" xlink:href="#p" />
<use x="162" y="198" xlink:href="#p" />
<use x="162" y="234" xlink:href="#p" />
<use x="162" y="243" xlink:href="#p" />
<use x="162" y="261" xlink:href="#p" />
<use x="162" y="270" xlink:href="#p" />
<use x="162" y="288" xlink:href="#p" />
<use x="162" y="306" xlink:href="#p" />
<use x="162" y="315" xlink:href="#p" />
<use x="162" y="324" xlink:href="#p" />
<use x="162" y="333" xlink:href="#p" />
<use x="162" y="342" xlink:href="#p" />
<use x="171" y="36" xlink:href="#p" />
<use x="171" y="45" xlink:href="#p" />
<use x="171" y="63" xlink:href="#p" />
<use x="171" y="72" xlink:href="#p" />
<use x="171" y="126" xlink:href="#p" />
<use x="171" y="144" xlink:href="#p" />
<use x="171" y="153" xlink:href="#p" />
<use x="171" y="162" xlink:href="#p" />
<use x="171" y="171" xlink:href="#p" />
<use x="171" y="180" xlink:href="#p" />
<use x="171" y="207" xlink:href="#p" />
<use x="171" y="225" xlink:href="#p" />
<use x="171" y="234" xlink:href="#p" />
<use x="171" y="252" xlink:href="#p" />
<use x="171" y="270" xlink:href="#p" />
<use x="171" y="288" xlink:href="#p" />
<use x="171" y="297" xlink:href="#p" />
<use x="171" y="306" xlink:href="#p" />
<use x="171" y="333" xlink:href="#p" />
<use x="171" y="342" xlink:href="#p" />
<use x="171" y="351" xlink:href="#p" />
<use x="180" y="36" xlink:href="#p" />
<use x="180" y="45" xlink:href="#p" />
<use x="180" y="54" xlink:href="#p" />
<use x="180" y="72" xlink:href="#p" />
<use x="180" y="90" xlink:href="#p" />
<use x="180" y="108" xlink:href="#p" />
<use x="180" y="117" xlink:href="#p" />
<use x="180" y="126" xlink:href="#p" />
<use x="180" y="153" xlink:href="#p" />
<use x="180" y="162" xlink:href="#p" />
<use x="180" y="171" xlink:href="#p" />
<use x="180" y="189" xlink:href="#p" />
<use x="180" y="198" xlink:href="#p" />
<use x="180" y="207" xlink:href="#p" />
<use x="180" y="216" xlink:href="#p" />
<use x="180" y="234" xlink:href="#p" />
<use x="180" y="252" xlink:href="#p" />
<use x="180" y="297" xlink:href="#p" />
<use x="180" y="315" xlink:href="#p" />
<use x="180" y="324" xlink:href="#p" />
<use x="180" y="351" xlink:href="#p" />
<use x="180" y="360" xlink:href="#p" />
<use x="189" y="63" xlink:href="#p" />
<use x="189" y="72" xlink:href="#p" />
<use x="189" y="108" xlink:href="#p" />
<use x="189" y="180" xlink:href="#p" />
<use x="189" y="189" xlink:href="#p" />
<use x="189" y="198" xlink:href="#p" />
<use x="189" y="216" xlink:href="#p" />
<use x="189" y="225" xlink:href="#p" />
<use x="189" y="261" xlink:href="#p" />
<use x="189" y="288" xlink:href="#p" />
<use x="189" y="306" xlink:href="#p" />
<use x="189" y="324" xlink:href="#p" />
<use x="189" y="333" xlink:href="#p" />
<use x="189" y="342" xlink:href="#p" />
<use x="198" y="36" xlink:href="#p" />
<use x="198" y="45" xlink:href="#p" />
<use x="198" y="54" xlink:href="#p" />
<use x="198" y="90" xlink:href="#p" />
<use x="198" y="99" xlink:href="#p" />
<use x="198" y="117" xlink:href="#p" />
<use x="198" y="135" xlink:href="#p" />
<use x="198" y="153" xlink:href="#p" />
<use x="198" y="189" xlink:href="#p" />
<use x="198" y="225" xlink:href="#p" />
<use x="198" y="261" xlink:href="#p" />
<use x="198" y="279" xlink:href="#p" />
<use x="198" y="288" xlink:href="#p" />
<use x="198" y="297" xlink:href="#p" />
<use x="198" y="333" xlink:href="#p" />
<use x="207" y="72" xlink:href="#p" />
<use x="207" y="99" xlink:href="#p" />
<use x="207" y="108" xlink:href="#p" />
<use x="207" y="117" xlink:href="#p" />
<use x="207" y="153" xlink:href="#p" />
<use x="207" y="171" xlink:href="#p" />
<use x="207" y="189" xlink:href="#p" />
<use x="207" y="198" xlink:href="#p" />
<use x="207" y="225" xlink:href="#p" />
<use x="207" y="252" xlink:href="#p" />
<use x="207" y="261" xlink:href="#p" />
<use x="207" y="297" xlink:href="#p" />
<use x="207" y="306" xlink:href="#p" />
<use x="207" y="315" xlink:href="#p" />
<use x="207" y="333" xlink:href="#p" />
<use x="207" y="360" xlink:href="#p" />
<use x="216" y="45" xlink:href="#p" />
<use x="216" y="54" xlink:href="#p" />
<use x="216" y="63" xlink:href="#p" />
<use x="216" y="72" xlink:href="#p" />
<use x="216" y="81" xlink:href="#p" />
<use x="216" y="90" xlink:href="#p" />
<use x="216" y="99" xlink:href="#p" />
<use x="216" y="126" xlink:href="#p" />
<use x="216" y="135" xlink:href="#p" />
<use x="216" y="144" xlink:href="#p" />
<use x="216" y="162" xlink:href="#p" />
<use x="216" y="171" xlink:href="#p" />
<use x="216" y="207" xlink:href="#p" />
<use x="216" y="216" xlink:href="#p" />
<use x="216" y="243" xlink:href="#p" />
<use x="216" y="252" xlink:href="#p" />
<use x="216" y="261" xlink:href="#p" />
<use x="216" y="288" xlink:href="#p" />
<use x="216" y="297" xlink:href="#p" />
<use x="216" y="306" xlink:href="#p" />
<use x="216" y="315" xlink:href="#p" />
<use x="216" y="324" xlink:href="#p" />
<use x="216" y="342" xlink:href="#p" />
<use x="216" y="360" xlink:href="#p" />
<use x="225" y="36" xlink:href="#p" />
<use x="225" y="45" xlink:href="#p" />
<use x="225" y="54" xlink:href="#p" />
<use x="225" y="63" xlink:href="#p" />
<use x="225" y="72" xlink:href="#p" />
<use x="225" y="117" xlink:href="#p" />
<use x="225" y="153" xlink:href="#p" />
<use x="225" y="162" xlink:href="#p" />
<use x="225" y="198" xlink:href="#p" />
<use x="225" y="234" xlink:href="#p" />
<use x="225" y="297" xlink:href="#p" />
<use x="225" y="306" xlink:href="#p" />
<use x="225" y="342" xlink:href="#p" />
<use x="234" y="36" xlink:href="#p" />
<use x="234" y="45" xlink:href="#p" />
<use x="234" y="54" xlink:href="#p" />
<use x="234" y="63" xlink:href="#p" />
<use x="234" y="81" xlink:href="#p" />
<use x="234" y="90" xlink:href="#p" />
<use x="234" y="99" xlink:href="#p" />
<use x="234" y="108" xlink:href="#p" />
<use x="234" y="117" xlink:href="#p" />
<use x="234" y="126" xlink:href="#p" />
<use x="234" y="135" xlink:href="#p" />
<use x="234" y="162" xlink:href="#p" />
<use x="234" y="180" xlink:href="#p" />
<use x="234" y="189" xlink:href="#p" />
<use x="234" y="216" xlink:href="#p" />
<use x="234" y="279" xlink:href="#p" />
<use x="234" y="288" xlink:href="#p" />
<use x="234" y="324" xlink:href="#p" />
<use x="234" y="333" xlink:href="#p" />
<use x="234" y="351" xlink:href="#p" />
<use x="243" y="72" xlink:href="#p" />
<use x="243" y="99" xlink:href="#p" />
<use x="243" y="117" xlink:href="#p" />
<use x="243" y="153" xlink:href="#p" />
<use x="243" y="171" xlink:href="#p" />
<use x="243" y="180" xlink:href="#p" />
<use x="243" y="189" xlink:href="#p" />
<use x="243" y="198" xlink:href="#p" />
<use x="243" y="225" xlink:href="#p" />
<use x="243" y="261" xlink:href="#p" />
<use x="243" y="288" xlink:href="#p" />
<use x="243" y="297" xlink:href="#p" />
<use x="243" y="306" xlink:href="#p" />
<use x="243" y="324" xlink:href="#p" />
<use x="243" y="333" xlink:href="#p" />
<use x="243" y="360" xlink:href="#p" />
<use x="252" y="45" xlink:href="#p" />
<use x="252" y="63" xlink:href="#p" />
<use x="252" y="90" xlink:href="#p" />
<use x="252" y="180" xlink:href="#p" />
<use x="252" y="189" xlink:href="#p" />
<use x="252" y="216" xlink:href="#p" />
<use x="252" y="225" xlink:href="#p" />
<use x="252" y="234" xlink:href="#p" />
<use x="252" y="252" xlink:href="#p" />
<use x="252" y="270" xlink:href="#p" />
<use x="252" y="279" xlink:href="#p" />
<use x="252" y="288" xlink:href="#p" />
<use x="252" y="324" xlink:href="#p" />
<use x="252" y="342" xlink:href="#p" />
<use x="252" y="360" xlink:href="#p" />
<use x="261" y="36" xlink:href="#p" />
<use x="261" y="45" xlink:href="#p" />
<use x="261" y="63" xlink:href="#p" />
<use x="261" y="108" xlink:href="#p" />
<use x="261" y="126" xlink:href="#p" />
<use x="261" y="153" xlink:href="#p" />
<use x="261" y="180" xlink:href="#p" />
<use x="261" y="189" xlink:href="#p" />
<use x="261" y="216" xlink:href="#p" />
<use x="261" y="225" xlink:href="#p" />
<use x="261" y="261" xlink:href="#p" />
<use x="261" y="288" xlink:href="#p" />
<use x="261" y="324" xlink:href="#p" />
<use x="270" y="81" xlink:href="#p" />
<use x="270" y="90" xlink:href="#p" />
<use x="270" y="108" xlink:href="#p" />
<use x="270" y="117" xlink:href="#p" />
<use x="270" y="126" xlink:href="#p" />
<use x="270" y="135" xlink:href="#p" />
<use x="270" y="144" xlink:href="#p" />
<use x="270" y="162" xlink:href="#p" />
<use x="270" y="180" xlink:href="#p" />
<use x="270" y="207" xlink:href="#p" />
<use x="270" y="216" xlink:href="#p" />
<use x="270" y="225" xlink:href="#p" />
<use x="270" y="234" xlink:href="#p" />
<use x="270" y="252" xlink:href="#p" />
<use x="270" y="279" xlink:href="#p" />
<use x="270" y="288" xlink:href="#p" />
<use x="270" y="297" xlink:href="#p" />
<use x="270" y="306" xlink:href="#p" />
<use x="270" y="315" xlink:href="#p" />
<use x="270" y="324" xlink:href="#p" />
<use x="270" y="342" xlink:href="#p" />
<use x="279" y="54" xlink:href="#p" />
<use x="279" y="63" xlink:href="#p" />
<use x="279" y="99" xlink:href="#p" />
<use x="279" y="117" xlink:href="#p" />
<use x="279" y="126" xlink:href="#p" />
<use x="279" y="135" xlink:href="#p" />
<use x="279" y="153" xlink:href="#p" />
<use x="279" y="162" xlink:href="#p" />
<use x="279" y="171" xlink:href="#p" />
<use x="279" y="189" xlink:href="#p" />
<use x="279" y="198" xlink:href="#p" />
<use x="279" y="216" xlink:href="#p" />
<use x="279" y="225" xlink:href="#p" />
<use x="279" y="234" xlink:href="#p" />
<use x="279" y="243" xlink:href="#p" />
<use x="279" y="252" xlink:href="#p" />
<use x="279" y="261" xlink:href="#p" />
<use x="279" y="270" xlink:href="#p" />
<use x="279" y="297" xlink:href="#p" />
<use x="279" y="324" xlink:href="#p" />
<use x="279" y="333" xlink:href="#p" />
<use x="279" y="360" xlink:href="#p" />
<use x="288" y="72" xlink:href="#p" />
<use x="288" y="81" xlink:href="#p" />
<use x="288" y="90" xlink:href="#p" />
<use x="288" y="99" xlink:href="#p" />
<use x="288" y="135" xlink:href="#p" />
<use x="288" y="144" xlink:href="#p" />
<use x="288" y="153" xlink:href="#p" />
<use x="288" y="225" xlink:href="#p" />
<use x="288" y="234" xlink:href="#p" />
<use x="288" y="270" xlink:href="#p" />
<use x="288" y="288" xlink:href="#p" />
<use x="288" y="297" xlink:href="#p" />
<use x="288" y="306" xlink:href="#p" />
<use x="288" y="315" xlink:href="#p" />
<use x="288" y="324" xlink:href="#p" />
<use x="288" y="351" xlink:href="#p" />
<use x="288" y="360" xlink:href="#p" />
<use x="297" y="108" xlink:href="#p" />
<use x="297" y="126" xlink:href="#p" />
<use x="297" y="135" xlink:href="#p" />
<use x="297" y="153" xlink:href="#p" />
<use x="297" y="171" xlink:href="#p" />
<use x="297" y="180" xlink:href="#p" />
<use x="297" y="207" xlink:href="#p" />
<use x="297" y="234" xlink:href="#p" />
<use x="297" y="270" xlink:href="#p" />
<use x="297" y="288" xlink:href="#p" />
<use x="297" y="324" xlink:href="#p" />
<use x="297" y="333" xlink:href="#p" />
<use x="297" y="342" xlink:href="#p" />
<use x="297" y="351" xlink:href="#p" />
<use x="306" y="36" xlink:href="#p" />
<use x="306" y="45" xlink:href="#p" />
<use x="306" y="54" xlink:href="#p" />
<use x="306" y="63" xlink:href="#p" />
<use x="306" y="72" xlink:href="#p" />
<use x="306" y="81" xlink:href="#p" />
<use x="306" y="90" xlink:href="#p" />
<use x="306" y="108" xlink:href="#p" />
<use x="306" y="126" xlink:href="#p" />
<use x="306" y="144" xlink:href="#p" />
<use x="306" y="171" xlink:href="#p" />
<use x="306" y="180" xlink:href="#p" />
<use x="306" y="198" xlink:href="#p" />
<use x="306" y="216" xlink:href="#p" />
<use x="306" y="252" xlink:href="#p" />
<use x="306" y="288" xlink:href="#p" />
<use x="306" y="306" xlink:href="#p" />
<use x="306" y="324" xlink:href="#p" />
<use x="306" y="333" xlink:href="#p" />
<use x="306" y="351" xlink:href="#p" />
<use x="315" y="36" xlink:href="#p" />
<use x="315" y="90" xlink:href="#p" />
<use x="315" y="117" xlink:href="#p" />
<use x="315" y="135" xlink:href="#p" />
<use x="315" y="153" xlink:href="#p" />
<use x="315" y="162" xlink:href="#p" />
<use x="315" y="171" xlink:href="#p" />
<use x="315" y="180" xlink:href="#p" />
<use x="315" y="189" xlink:href="#p" />
<use x="315" y="198" xlink:href="#p" />
<use x="315" y="216" xlink:href="#p" />
<use x="315" y="225" xlink:href="#p" />
<use x="315" y="234" xlink:href="#p" />
<use x="315" y="243" xlink:href="#p" />
<use x="315" y="261" xlink:href="#p" />
<use x="315" y="270" xlink:href="#p" />
<use x="315" y="288" xlink:href="#p" />
<use x="315" y="324" xlink:href="#p" />
<use x="315" y="351" xlink:href="#p" />
<use x="324" y="36" xlink:href="#p" />
<use x="324" y="54" xlink:href="#p" />
<use x="324" y="63" xlink:href="#p" />
<use x="324" y="72" xlink:href="#p" />
<use x="324" y="90" xlink:href="#p" />
<use x="324" y="117" xlink:href="#p" />
<use x="324" y="162" xlink:href="#p" />
<use x="324" y="171" xlink:href="#p" />
<use x="324" y="180" xlink:href="#p" />
<use x="324" y="198" xlink:href="#p" />
<use x="324" y="216" xlink:href="#p" />
<use x="324" y="225" xlink:href="#p" />
<use x="324" y="234" xlink:href="#p" />
<use x="324" y="243" xlink:href="#p" />
<use x="324" y="288" xlink:href="#p" />
<use x="324" y="297" xlink:href="#p" />
<use x="324" y="306" xlink:href="#p" />
<use x="324" y="315" xlink:href="#p" />
<use x="324" y="324" xlink:href="#p" />
<use x="324" y="351" xlink:href="#p" />
<use x="333" y="36" xlink:href="#p" />
<use x="333" y="54" xlink:href="#p" />
<use x="333" y="63" xlink:href="#p" />
<use x="333" y="72" xlink:href="#p" />
<use x="333" y="90" xlink:href="#p" />
<use x="333" y="108" xlink:href="#p" />
<use x="333" y="117" xlink:href="#p" />
<use x="333" y="135" xlink:href="#p" />
<use x="333" y="153" xlink:href="#p" />
<use x="333" y="162" xlink:href="#p" />
<use x="333" y="171" xlink:href="#p" />
<use x="333" y="207" xlink:href="#p" />
<use x="333" y="216" xlink:href="#p" />
<use x="333" y="234" xlink:href="#p" />
<use x="333" y="279" xlink:href="#p" />
<use x="333" y="306" xlink:href="#p" />
<use x="333" y="324" xlink:href="#p" />
<use x="333" y="342" xlink:href="#p" />
<use x="333" y="351" xlink:href="#p" />
<use x="333" y="360" xlink:href="#p" />
<use x="342" y="36" xlink:href="#p" />
<use x="342" y="54" xlink:href="#p" />
<use x="342" y="63" xlink:href="#p" />
<use x="342" y="72" xlink:href="#p" />
<use x="342" y="90" xlink:href="#p" />
<use x="342" y="108" xlink:href="#p" />
<use x="342" y="126" xlink:href="#p" />
<use x="342" y="171" xlink:href="#p" />
<use x="342" y="180" xlink:href="#p" />
<use x="342" y="216" xlink:href="#p" />
<use x="342" y="225" xlink:href="#p" />
<use x="342" y="270" xlink:href="#p" />
<use x="342" y="279" xlink:href="#p" />
<use x="342" y="288" xlink:href="#p" />
<use x="342" y="297" xlink:href="#p" />
<use x="342" y="324" xlink:href="#p" />
<use x="342" y="333" xlink:href="#p" />
<use x="342" y="342" xlink:href="#p" />
<use x="351" y="36" xlink:href="#p" />
<use x="351" y="90" xlink:href="#p" />
<use x="351" y="108" xlink:href="#p" />
<use x="351" y="117" xlink:href="#p" />
<use x="351" y="126" xlink:href="#p" />
<use x="351" y="189" xlink:href="#p" />
<use x="351" y="225" xlink:href="#p" />
<use x="351" y="234" xlink:href="#p" />
<use x="351" y="243" xlink:href="#p" />
<use x="351" y="270" xlink:href="#p" />
<use x="351" y="324" xlink:href="#p" />
<use x="351" y="333" xlink:href="#p" />
<use x="351" y="342" xlink:href="#p" />
<use x="360" y="36" xlink:href="#p" />
<use x="360" y="45" xlink:href="#p" />
<use x="360" y="54" xlink:href="#p" />
<use x="360" y="63" xlink:href="#p" />
<use x="360" y="72" xlink:href="#p" />
<use x="360" y="81" xlink:href="#p" />
<use x="360" y="90" xlink:href="#p" />
<use x="360" y="126" xlink:href="#p" />
<use x="360" y="135" xlink:href="#p" />
<use x="360" y="144" xlink:href="#p" />
<use x="360" y="162" xlink:href="#p" />
<use x="360" y="180" xlink:href="#p" />
<use x="360" y="198" xlink:href="#p" />
<use x="360" y="207" xlink:href="#p" />
<use x="360" y="234" xlink:href="#p" />
<use x="360" y="243" xlink:href="#p" />
<use x="360" y="252" xlink:href="#p" />
<use x="360" y="270" xlink:href="#p" />
<use x="360" y="288" xlink:href="#p" />
<use x="360" y="306" xlink:href="#p" />
<use x="360" y="315" xlink:href="#p" />
<use x="360" y="324" xlink:href="#p" />
<use x="360" y="333" xlink:href="#p" />
<use x="360" y="342" xlink:href="#p" />
<use x="360" y="351" xlink:href="#p" />
<use x="360" y="360" xlink:href="#p" />
</g>
</svg>