<svg xmlns="http://www.w3.org/2000/svg" xmlns:xlink="http://www.w3.org/1999/xlink" version="1.1" x="0px" y="0px" width="100px" height="100px" viewBox="0 0 100 100" enable-background="new 0 0 100 100" xml:space="preserve">
<g id="Captions">
	<g>
		<path d="M37.083,69.96c-1.222,0.362-2.737,0.715-3.18,0.929v0.101v0.102l1.521,1.596h0.761l4.941-1.405l0.192-0.055l-0.915-0.935    C40.402,70.292,39.642,69.199,37.083,69.96z"/>
		<path d="M75.095,75.239c0,0-4.888,1.152-5.624,1.152c-0.738,0-0.785,0.093-1.568-0.277c-0.783-0.368-2.536-1.475-2.766-1.705    c-0.231-0.229-0.876-0.784-0.876-0.784l-0.223,1.091l-7.016,1.445l-0.829-0.346l-0.52-0.554c0,0-0.032-0.044-0.082-0.105    c-0.12-0.152-0.35-0.416-0.506-0.448c-0.237-0.046-0.75-0.068-1.395,0.15c-0.243,0.083-0.566,0.381-0.714,0.542    c-0.391,0.421-0.175,1.452-0.175,1.452l0.9,0.969c0,0,0.631,0.639,0.899,0.761c0.223,0.1,0.726,0.102,0.968,0.138    c0.278,0.041,0.554,0.139,1.106-0.208c0.554-0.346,0.898-0.761,0.898-0.761l6.225-1.452l0.045,0.186c0,0-0.276,0.046,0.969,0.922    c1.245,0.875,2.767,1.383,3.135,1.476c0.145,0.035,0.461,0.071,0.825,0.1c-2.986,7.757-10.714,13.734-18.849,13.734    c-8.049,0-13.77-4.755-15.949-11.421c-0.533-1.802-0.821-3.751-0.821-5.815c0-0.818,0.062-1.636,0.172-2.447l1.958,2.16h0.761    l1.952-0.555c-0.146-0.328-0.129-0.728-0.016-0.897c0.139-0.208,0.692-0.484,1.313-0.621c0.624-0.139,1.037,0.206,1.037,0.206    l1.662-0.39l-0.14-0.536l-0.346-0.531l-0.19-0.195l-0.262-0.012l-4.942,1.404h-0.761l-1.688-1.857    c0.913-3.814,3.024-7.436,6.179-10.484c2.966-2.867,6.537-4.876,9.817-5.608l-0.47,16.536l-6.646,1.561l-1.661,0.39    c0,0-0.415-0.346-1.038-0.207c-0.622,0.138-1.175,0.414-1.314,0.622c-0.112,0.17-0.13,0.569,0.017,0.898    c0.033,0.073,0.072,0.146,0.123,0.208c0.276,0.346,0.414,0.692,0.897,0.622c0.484-0.068,1.108-0.414,1.661-0.691    c0.358-0.178,4.801-1.023,7.892-1.599c-0.097,0.328-0.15,0.668-0.148,1.013c0.005,1.77,1.27,2.8,2.999,2.685    c0.119-0.009,0.243-0.13,0.357-0.161c-0.322-0.842-0.241-1.591,0.479-2.157c1.584-1.243,2.633-0.448,2.793-0.218l0.105-0.207    c0,0,0.09-0.446,0.138-1.453c0.044-0.938,0.003-10.748-0.125-17.923c0.93,0.127,1.826,0.303,2.683,0.531    c7.313,2.152,11.673,8.119,11.673,16.606c0,0.309-0.011,0.615-0.027,0.921c-0.565,0.028-1.278,0.089-1.732,0.211    c-0.692,0.185-3.55,0.322-3.55,0.322s2.766,1.845,3.55,2.121c0.783,0.276,0.829,0.323,1.153,0.276    c0.321-0.046,4.287-0.83,4.655-0.922c0.369-0.092,0.877,0.093,0.921-0.092c0.029-0.109-0.207-0.237-0.547-0.389    c0.13-0.995,0.204-1.996,0.204-3.002c0-12.265-8.073-20.614-19.125-22.097c-0.044-1.083-0.093-1.808-0.146-2.013    c-0.336-1.272-1.245-3.25-1.245-3.25v-1.729c0,0-1.055,0.361-1.406,0.358c-0.319-0.004-1.223-0.358-1.223-0.358    s0.07,1.245-0.138,1.729s-0.666,0.195-1.107,1.868c-0.346,1.313-0.346,2.766-0.346,2.766s1.3-0.227,2.155-0.162    c0.151,0.011,0.127-1.361,0.127-1.361l0.553,0.346c0,0,0.074,0.743,0.154,1.589c-0.321-0.012-0.645-0.021-0.97-0.021    c-12.853,0-24.655,12.375-24.655,25.935c0,13.559,9.311,22.888,22.163,22.888c10.611,0,20.878-8.814,24.138-19.52    c0.484-0.162,0.96-0.394,1.186-0.489c0.322-0.139,0.137-0.6,0.276-1.015C75.232,76.668,75.095,75.239,75.095,75.239z     M53.143,70.739c-0.324-0.061-0.672-0.069-1.036-0.007c-0.022,0.003-0.044,0.011-0.065,0.015l0.251-15.942    c0.337,0.001,0.668,0.009,0.996,0.021C53.386,59.589,53.251,66.466,53.143,70.739z M72.22,72.437c0,0.378-0.012,0.755-0.033,1.13    c-0.426-0.187-0.835-0.353-1.127-0.437c0.007-0.194,0.014-0.389,0.014-0.583c0-10.032-5.799-16.652-15.359-17.912    c-0.009-0.414-0.016-0.816-0.024-1.208C65.94,54.683,72.22,61.741,72.22,72.437z M50.153,94.993    c-11.393,0-18.539-8.713-18.539-19.415c0-12.741,12.384-22.354,20.683-22.354c0.32,0,0.635,0.008,0.948,0.018    c0.014,0.377,0.024,0.773,0.035,1.188c-0.333-0.012-0.669-0.019-1.008-0.019c-3.987,0-8.853,2.311-12.699,6.029    c-4.393,4.246-6.812,9.586-6.812,15.038c0,5.017,1.676,9.615,4.718,12.946c3.215,3.521,7.637,5.381,12.79,5.381    c5.141,0,10.401-2.35,14.432-6.447c2.386-2.425,4.167-5.296,5.232-8.327c0.162,0,0.305-0.004,0.412-0.013    c0.186-0.015,0.474-0.042,0.801-0.072C68.165,87.931,59.396,94.993,50.153,94.993z"/>
		<path d="M51.121,12.908c-0.363-0.084-5.809-3.25-6.432-3.804c-0.622-0.552-4.079-2.558-5.395-3.319    c-1.313-0.761-3.387-0.346-3.387-0.346s0.829,1.659,2.766,2.766c1.598,0.914,9.542,5.601,11.619,6.224    c0.511,0.153,1.03,0.21,1.537,0.205l-0.136,14.971l-0.02-0.422l-0.368,0.23l-0.415,1.613l0.789,0.166l-0.002,0.116l-0.972,0.041    l-0.83,5.625c0,0,0.139,0.645,0.508,0.783c0.369,0.139,0.598-0.507,0.598-0.507l0.687-4.917l-0.087,9.619    c0,0,0.814,0.354,1.107,0.37c0.329,0.018,1.44-0.231,1.44-0.231l-0.15-12.093c0.235,0.261,0.601,0.431,1.015,0.431    c0.713,0,1.291-0.497,1.291-1.107c0-0.611-0.578-1.107-1.291-1.107c-0.414,0-0.779,0.17-1.015,0.429V14.292    c0.634-0.179,1.16-0.38,1.498-0.485c0.899-0.276,1.798-0.968,1.313-0.761c-0.483,0.208-2.488,0.484-2.765,0.553    c-0.012,0.003-0.03,0.003-0.047,0.004V12.92c1.596,0.102,2.619-0.38,3.596-0.38c1.477,0,5.625-1.938,6.916-2.398    c1.291-0.461,2.674-1.199,3.043-1.936c0.369-0.738-0.369-1.567-0.554-2.306c-0.185-0.737-1.106-2.028-1.937-2.121    c-0.831-0.092-3.043,1.015-4.518,1.752c-1.476,0.738-4.149,2.214-6.731,2.214s-4.518-1.476-6.27-2.49    c-1.752-1.015-6.545-4.794-7.654-4.61c-1.105,0.185-1.659,0.461-2.305,1.199c-0.646,0.737-1.475,2.766-1.475,2.766    c0.369-0.093,1.384,0.07,1.937,0.092c1.198,0.046,2.211,1.014,3.504,1.66c1.291,0.645,5.993,4.334,9.497,5.809    c0.287,0.122,0.557,0.219,0.819,0.308l-0.006,0.616C51.578,13.022,51.327,12.956,51.121,12.908z M55.225,29.09    c0.381,0,0.691,0.206,0.691,0.461s-0.311,0.462-0.691,0.462c-0.383,0-0.692-0.207-0.692-0.462S54.842,29.09,55.225,29.09z"/>
	</g>
	<polygon points="89.745,73.486 89.707,73.463 89.716,73.456  "/>
</g>
<g id="Your_Icon">
</g>
</svg>